<?xml version="1.0" encoding="utf-8"?>
<svg xmlns="http://www.w3.org/2000/svg" xmlns:inkscape="http://www.inkscape.org/namespaces/inkscape" xmlns:sodipodi="http://sodipodi.sourceforge.net/DTD/sodipodi-0.dtd" xmlns:svg="http://www.w3.org/2000/svg" version="1.1" id="svg2" width="415.67999" height="483.35999" viewBox="0 0 415.67999 483.35999">
  <defs id="defs6"/>
  <g id="g8" transform="matrix(1.3333333,0,0,-1.3333333,0,483.36)">
    <g id="g10" transform="scale(0.1)">
      <path d="m 219.02,531.699 c 57.527,0 90.328,-9.617 116.75,-28.109 27.148,-19.16 41.488,-47.899 41.488,-87.86 0,-70.371 -66.383,-104.718 -104.641,-114.332 v -1.539 c 72.742,-10.398 138.297,-53.609 138.297,-134.367 0,-56.66 -27.98,-96.7225 -74.285,-123.0428 C 295.777,20.0313 244.652,12.0195 183.965,12.0195 H 0 v 18.461 c 67.2422,4.7812 73.5859,10.4297 73.5859,97.4495 v 287.8 c -0.7968,87.168 -5.6171,92.711 -68.82809,97.481 v 18.488 z m -78.352,-226.23 h 50.371 c 76.719,0 115.106,35.961 115.106,101.492 0,47.961 -19.903,101.48 -114.348,101.48 -26.293,0 -37.5,-2.39 -43.965,-4.851 -4.687,-1.539 -7.164,-4.699 -7.164,-20.719 z m 0,-23.258 v -174.25 c 0,-53.5704 10.437,-71.9219 68.812,-71.1602 67.067,0 123.93,33.5976 123.93,118.3792 0,87.09 -63.996,127.031 -146.347,127.031 h -46.395" style="fill:#231f20;fill-opacity:1;fill-rule:nonzero;stroke:none" id="path12"/>
      <path d="m 689.078,127.93 c 0,-87.0198 6.379,-92.6683 72.012,-97.4495 V 12.0195 H 548.34 v 18.461 c 67.195,4.7812 73.601,10.4297 73.601,97.4495 v 287.789 c 0,87.179 -6.406,92.722 -70.402,97.492 v 18.488 h 203.145 c 51.066,0 96.718,-7.238 126.242,-27.25 31.91,-20.019 52.816,-55.918 52.816,-102.269 0,-66.371 -40.851,-113.559 -105.633,-139.879 C 842.582,238.25 875.336,183.051 899.27,147.93 928.031,105.48 944.863,84.0313 966.492,60 983.234,40.0313 997.59,27.1914 1026.47,20.0313 L 1024.81,4.76953 H 1013.6 C 921.746,7.25 893.707,35.2617 863.371,79.1289 838.594,115.289 804.965,174.34 782.547,211.93 c -12.695,20.699 -25.477,28.699 -50.289,28.699 h -43.18 z m 0,135.91 h 46.383 c 32.789,0 58.293,4.051 79.984,21.601 34.328,27.2 46.293,66.301 46.293,105.571 0,83.859 -60.793,117.429 -120.679,117.429 -27.204,0 -38.399,-1.621 -44.844,-3.992 -4.746,-1.551 -7.137,-5.558 -7.137,-21.59 V 263.84" style="fill:#231f20;fill-opacity:1;fill-rule:nonzero;stroke:none" id="path14"/>
      <path d="M 1640.39,279.07 C 1640.39,112.73 1524.51,0 1371.83,0 c -151.1,0 -258.19,115.289 -258.19,266.199 0,134.352 94.31,277.43 272.52,277.43 138.35,0 254.23,-107.117 254.23,-264.559 m -274.93,238.141 c -94.36,0 -174.31,-77.531 -174.31,-227.75 0,-154.313 80.73,-263.0196 197.45,-263.0196 95.91,0 174.32,74.2696 174.32,222.9886 0,172.691 -83.21,267.781 -197.46,267.781" style="fill:#231f20;fill-opacity:1;fill-rule:nonzero;stroke:none" id="path16"/>
      <path d="m 1901.84,513.211 -24.77,-3.16 c -35.96,-4.77 -40.77,-11.942 -29.67,-47.18 l 108.02,-340.5 h 1.54 l 127.84,401.231 h 19.28 l 144.61,-400.473 h 1.72 c 32.66,100.793 79.05,269.43 92.73,326.941 11.12,46.352 6.99,56.012 -28.82,59.981 l -23.21,3.16 v 18.488 h 169.42 V 513.211 C 2407.8,506.82 2402.24,503.59 2375.86,430.922 2368.7,410.879 2310.27,227.07 2243.19,7.25 h -21.69 l -143.8,390.941 -1.6,-1.632 L 1945.81,7.25 h -22.36 l -138.3,429.27 c -21.6,66.378 -33.57,71.921 -79.19,76.691 v 18.488 h 195.88 v -18.488" style="fill:#231f20;fill-opacity:1;fill-rule:nonzero;stroke:none" id="path18"/>
      <path d="m 3042.54,6.39844 h -20.7 L 2674.79,427.66 h -1.66 V 223.922 c 0,-83.992 3.23,-127.2032 6.43,-151.922 4.08,-27.9492 25.54,-39.1016 78.38,-41.5195 v -18.461 h -191.87 v 18.461 c 44.02,1.6289 64.7,13.5703 68.8,41.5195 3.09,24.7188 6.38,67.93 6.38,151.922 V 397.32 c 0,57.602 -0.79,70.469 -15.23,88.782 -15.28,19.179 -36.74,24.707 -70.31,27.109 v 18.488 h 116.57 L 3008.94,128.75 h 1.57 v 191.109 c 0,83.942 -3.11,126.981 -6.28,151.86 -4.05,27.922 -25.74,39.09 -78.41,41.492 v 18.488 h 191.78 v -18.488 c -43.91,-1.633 -64.72,-13.57 -68.71,-41.492 -3.26,-24.879 -6.35,-67.918 -6.35,-151.86 V 6.39844" style="fill:#231f20;fill-opacity:1;fill-rule:nonzero;stroke:none" id="path20"/>
      <path d="m 1311.8,3238.93 c 3.2,-5.25 7.36,-12.01 13.25,-21.75 15.4,-25.48 39.26,-121.52 70.05,-153.35 16.44,11.14 44.87,25.5 61.01,31.3 -3.73,6.23 -21.01,35.78 -40.22,60.92 -36.99,49.09 -63.54,75.31 -66.53,79.56 -9.99,0.13 -26.97,-0.38 -37.56,3.32" style="fill:#ffffff;fill-opacity:1;fill-rule:nonzero;stroke:none" id="path22"/>
      <path d="m 1589.34,3111.05 c 7.34,50.27 -9.4,133.72 -19.27,154.61 -12.52,3.18 -25.47,7.59 -36.11,12.7 -1.37,-6.4 -10.82,-40.46 -13.95,-90.6 -1.69,-26.87 -0.99,-67.75 3.97,-76.71 15.91,1.58 42.55,2.13 65.36,0" style="fill:#ffffff;fill-opacity:1;fill-rule:nonzero;stroke:none" id="path24"/>
      <path d="m 1723.16,2901.58 c -14.24,11.74 -32.9,16.89 -40.05,11.74 l 0.26,-2.41 c 1.47,-17.29 -11.28,-32.48 -28.54,-34.04 -17.3,-1.52 -32.56,11.35 -34.01,28.57 v 1.35 c -11.28,3.55 -29.26,-2.66 -31.72,-1.69 -1.45,0.67 -9.07,32.63 0.87,36.65 27.07,11.04 114.3,16.44 139.64,-32.54 2.98,-5.94 1.12,-13.83 -6.45,-7.63 z m -133.38,-88.71 c -5.51,-16.01 -62.19,-21.13 -72.62,-0.3 -4.11,8.27 -9.81,29.59 -2.12,25.18 12.61,-7.34 58.21,-2.15 66.84,0 7.62,1.95 2.65,12.57 7.36,11.27 5.63,-1.57 5.63,-20.99 0.54,-36.15 z m -89.99,94.05 c -0.85,-17.34 -15.58,-30.64 -32.96,-29.78 -17.32,0.84 -30.58,15.72 -29.72,32.93 l 0.28,3.46 c -2.67,4.11 -16.79,8.68 -37.76,-4.05 -10.53,-6.47 -22.34,-2.03 -4.04,13.83 19.44,16.88 37.87,26.65 54.13,28.69 l 0.52,0.13 c 27.4,1.89 63.02,-3.72 79.66,-10.49 6.91,-2.82 -0.26,-36.74 -1.85,-36.34 -5.65,1.26 -17.98,6.47 -28.33,4.11 z m 328.83,-92 c 0,151.21 -118.46,269.74 -269.77,269.74 -148.99,0 -269.78,-120.76 -269.78,-269.74 0,-7.13 1.59,-21.57 3.94,-36.18 77.6,18 180.51,15.14 226.21,-21.11 74.01,42.21 180.65,44.86 258.75,-0.64 15.52,7.76 31.69,13.37 48.01,18.03 1.94,14.53 2.64,29.76 2.64,39.9" style="fill:#ffffff;fill-opacity:1;fill-rule:nonzero;stroke:none" id="path26"/>
      <path d="m 1739.57,3241.91 c -31.71,-26.86 -80.17,-91.93 -86.36,-144.01 14.89,-6.01 54.2,-24.76 59.57,-29.2 39.01,38.46 31.08,80.85 46.32,113.63 6.61,14.14 12.99,25.28 16.69,31.65 -12.66,6.88 -26.3,16.66 -36.22,27.93" style="fill:#ffffff;fill-opacity:1;fill-rule:nonzero;stroke:none" id="path28"/>
      <path d="m 1928.79,3138.85 c -7.04,-3.86 -23.47,-13.94 -29,-18.09 -37.46,-28.22 -118.66,-66.12 -137.36,-86.88 14.91,-13.23 36.94,-36.95 46.9,-56.81 9.12,-0.41 35.32,20.92 87.29,82.08 16.67,19.53 34.39,29.85 66.53,47.72 -13.25,9.45 -24.69,20.46 -34.36,31.98" style="fill:#ffffff;fill-opacity:1;fill-rule:nonzero;stroke:none" id="path30"/>
      <path d="m 1274.63,2913.1 c -17.54,17.3 -52.41,32.26 -97.83,28.61 -92.92,-7.29 -154.11,-1.33 -189.222,3.65 -60.125,8.62 -97.473,0.19 -127.515,0.19 -91.415,0 2.542,-8.22 13.261,-12.39 43.016,-16.98 129.776,-38.47 198.016,-33.5 33.34,2.32 89.15,-17.97 98.74,-21.29 24.53,-8.76 68.91,-23.05 92.88,-22.6 1.31,10.96 6.97,43.59 11.67,57.33" style="fill:#ffffff;fill-opacity:1;fill-rule:nonzero;stroke:none" id="path32"/>
      <path d="m 1349.46,3027.21 c -46.73,37.68 -89.69,45.73 -158.19,77.9 -15.52,7.3 -41.59,24.85 -42.92,25.57 -1.85,1.33 -5.27,3.48 -9.48,6.04 -4.02,-12.84 -12.2,-30.25 -19.7,-40 10.61,-13.79 87.19,-101.17 185.18,-128.4 10.73,18.76 28.04,40.38 45.11,58.89" style="fill:#ffffff;fill-opacity:1;fill-rule:nonzero;stroke:none" id="path34"/>
      <path d="m 2331.47,2959.62 c -4.62,0.73 -22.06,3.05 -33.22,2.99 -14.74,-0.07 -111.58,-0.53 -138.06,-4.59 -54.18,-8.48 -159.02,-4.1 -216.5,-1.92 -42.94,1.67 -92.4,-15.08 -107.49,-23.18 0,0 16.54,-41.35 17.62,-69.48 18.26,-3.24 35.84,19.83 87.98,18.97 54.3,-0.92 187.96,6.37 255.59,32.7 50.51,19.57 92.94,29.39 127.3,36.35 11.49,2.39 29.7,4.64 6.78,8.16" style="fill:#ffffff;fill-opacity:1;fill-rule:nonzero;stroke:none" id="path36"/>
      <path d="m 1090.58,3330.77 c 8.69,45.96 53.62,112.88 156.27,86.82 12.6,-3.18 5.17,-35.16 -8.36,-29.79 -74.95,29.39 -112.56,-27.45 -124.69,-72.29 -1.66,-6.1 -26.77,-3.79 -23.22,15.26 z m -36.14,-56.13 c -42.26,-4.64 -54.627,-25.27 -62.159,-48.94 -3.086,-8.9 -26.797,-2.52 -23.043,15 11.207,52.05 67.682,64.79 88.182,60.34 6.9,-1.33 4.78,-25.66 -2.98,-26.4 z m -117.542,-92.98 c -28.886,0 -52.066,-0.6 -72.39,-22.7 -21.738,-23.53 -16.457,-36.46 -20.5,-40.72 -5.942,-5.83 -20.832,4.45 -20.563,16.12 1.262,55.39 68.172,77 107.852,72.57 15.121,-1.79 19.031,-25.27 5.601,-25.27 z m 407.682,275.2 c 24.82,39.34 110.01,99.88 185.52,33.23 8.49,-7.38 -1.62,-34.76 -11.08,-28.4 -69.05,47.49 -123.36,9.36 -152.16,-24.99 -13.81,-16.32 -28.2,10.66 -22.28,20.16 z m 227.81,7.05 c 27.02,43.98 168.4,84.91 240.93,-39.46 7.68,-13.54 -2.58,-21.42 -10.72,-27 -5.74,-4.1 -9.16,5.24 -12.96,11.35 -61.55,97.38 -172.92,71.69 -202.86,26.53 -6.07,-9.15 -22.27,15.65 -14.39,28.58 z m 306.49,-70.56 c 37.5,13.26 101.38,19.16 118.42,-43.52 4.87,-17.52 -16.64,-25.87 -21.42,-13.6 -17.42,45.38 -50.17,43.58 -89.29,31.11 -18.03,-5.91 -13.67,23.95 -7.71,26.01 z m 173.74,-85.04 c 40.41,23.08 123.09,18.97 148.8,-54.78 4.41,-12.54 -12.24,-33.84 -22.57,-14.87 -31.09,57.12 -81.29,56.98 -123.23,40.98 -9.4,-3.7 -17.89,20.18 -3,28.67 z m 177.96,-82.98 c 41.56,9.62 91.46,-20.75 77.3,-76.6 -2.41,-9.56 -25.87,-10.16 -25.05,-0.4 3.58,46.76 -19.53,50.53 -50.31,50.21 -11.65,-0.27 -10.75,24.87 -1.94,26.79 z m -1109.68,4.61 c 4.34,3.69 10.31,3.22 15.75,1.47 45.82,-14.8 111.53,-4.74 142.17,43.76 4.28,6.78 12.77,9.16 20.16,6.17 31.67,-12.83 96.54,-18.77 175.54,61.43 5.94,6.02 15.53,5.27 22.12,-0.07 69.4,-55.69 141.71,-59.16 215.04,-10.39 4.55,3.03 10.34,6.94 15.38,4.88 5.06,-2.05 8.79,-6.48 9.94,-11.84 23.41,-108.32 136.47,-98.72 170.52,-93.22 4.39,0.7 8.86,-0.37 12.45,-2.98 3.56,-2.63 5.93,-6.57 6.54,-10.99 3.7,-25.33 31.79,-74.47 80.43,-99.55 41.58,-21.38 86.84,-19.73 134.66,4.9 4.81,2.48 10.52,2.46 15.33,-0.1 61.36,-32.78 116.59,-34.71 151.47,-5.33 24.59,20.73 34.58,54.48 24.8,84.03 -10.9,32.91 -43.62,53.37 -89.75,56.18 -7.76,0.47 -14.14,6.28 -15.31,13.94 -4.12,26.27 -18.8,47.75 -42.47,62.18 -36.08,21.99 -89.15,24.58 -141.98,6.92 -4.64,-1.52 -9.75,-0.95 -13.92,1.63 -4.18,2.59 -6.97,6.87 -7.67,11.74 -2.91,20.31 -11.7,47.79 -37.13,63.34 -26.82,16.39 -67.3,15.99 -117.11,-1.15 -7.73,-2.66 -16.27,0.73 -20.04,7.97 -32.02,61.37 -77.02,101.24 -130.09,115.3 -47.53,12.6 -100.33,3.44 -144.9,-25.18 -5.81,-3.75 -13.35,-3.48 -18.91,0.67 -44.84,33.67 -98.5,44.41 -147.22,29.49 -47.46,-14.5 -83.61,-51.54 -101.84,-104.3 -1.5,-4.28 -4.65,-7.78 -8.75,-9.63 -4.13,-1.89 -8.83,-1.99 -13.05,-0.3 -72.7,29.19 -132.05,28.45 -171.66,-2.16 -34.03,-26.29 -44.53,-67.71 -43.01,-79.79 1.09,-8.35 -3.94,-16.08 -12.13,-18.07 l -17.38,-4.17 c -40.294,-9.19 -81.989,-18.74 -94.548,-82.85 -1.394,-7.13 -7.332,-12.54 -14.598,-13.26 -70.043,-7 -115.804,-32.94 -125.484,-71.22 -6.812,-26.95 5.703,-57.5 30.473,-74.24 24.91,-16.89 54.918,-15.13 82.382,4.81 4.508,3.29 10.407,4.08 15.614,2.06 41.129,-15.72 107.851,-12.61 148.311,19.82 29.32,23.52 40.82,58.21 34.2,103.07 -0.84,5.68 1.28,11.36 5.67,15.03" style="fill:#ffffff;fill-opacity:1;fill-rule:nonzero;stroke:none" id="path38"/>
      <path d="m 882.414,2766.14 c -49.684,1.06 -91.07,-12.96 -105.66,-38.46 -26.871,-46.97 4.711,-87.46 23.605,-98.8 43.192,-25.98 84.368,-9.02 87.418,6.96 -11.8,13.3 -32.164,43.38 -43.57,43.64 -16.59,0.43 -15.25,21.96 -3.191,25.88 28.859,9.54 56.918,-45.24 98.375,-74.86 36.941,-26.44 88.739,-7.07 88.739,3.79 -22.6,20.46 -49.61,129.69 -145.716,131.85" style="fill:#ffffff;fill-opacity:1;fill-rule:nonzero;stroke:none" id="path40"/>
      <path d="m 1870.96,2636.96 c 34.36,-34.82 81.24,-19.9 83.42,-8.49 -3.84,6.95 -25.53,38.87 -38.28,45.81 -10.4,5.73 -17.16,15.26 -11.53,23.21 9.35,13.23 28.13,3.85 40.13,-10.64 12,-14.66 45.1,-57.77 56.7,-64.38 30.12,-16.67 96.53,-10.67 91.16,8.7 -18.38,29.08 -31.06,87.85 -85.77,113.56 -56.84,26.8 -129.67,19.81 -197.13,-4.25 12.12,-24.14 43.72,-85.83 61.3,-103.52" style="fill:#ffffff;fill-opacity:1;fill-rule:nonzero;stroke:none" id="path42"/>
      <path d="m 1471.99,2746.68 c -56.9,26.82 -137.22,17.86 -204.74,-6.11 18.7,-24.94 49.81,-83.17 65.86,-102.81 31.05,-37.8 84.17,-18.7 86.36,-7.3 -3.72,6.97 -32.23,43.86 -42.98,50.02 -10.02,5.74 -15.84,14.88 -10.21,22.84 9.41,13.25 31.56,0 43.58,-14.49 11.99,-14.58 45.69,-56.8 56.77,-64.29 33.22,-22.52 96.55,-10.79 91.22,8.54 -21.77,28.77 -31.26,87.93 -85.86,113.6" style="fill:#ffffff;fill-opacity:1;fill-rule:nonzero;stroke:none" id="path44"/>
      <path d="m 1045.75,2311.49 c -40.4,-1.19 -79.93,-17.11 -103.141,-13.06 v -270.55 c 0,0 14.653,-11.14 55.184,0.39 52.467,14.93 75.817,-1.47 75.817,-1.47 v 272.96 c 0,0 -6.11,12.4 -27.86,11.73" style="fill:#ffffff;fill-opacity:1;fill-rule:nonzero;stroke:none" id="path46"/>
      <path d="m 1190.63,1180.04 c 40.52,-11.57 55.19,-0.4 55.19,-0.4 v 270.56 c -23.22,-4.03 -62.75,11.9 -103.21,13.16 -21.7,0.71 -27.86,-11.71 -27.86,-11.71 v -272.94 c 0,0 23.41,16.34 75.88,1.33" style="fill:#ffffff;fill-opacity:1;fill-rule:nonzero;stroke:none" id="path48"/>
      <path d="m 2071.62,2311.49 c -21.71,0.67 -27.94,-11.73 -27.94,-11.73 V 2026.8 c 0,0 23.35,16.4 75.88,1.47 40.52,-11.53 55.2,-0.39 55.2,-0.39 v 270.55 c -23.21,-4.05 -62.75,11.87 -103.14,13.06" style="fill:#ffffff;fill-opacity:1;fill-rule:nonzero;stroke:none" id="path50"/>
      <path d="m 1142.6,2311.49 c -21.7,0.67 -27.88,-11.73 -27.88,-11.73 V 2026.8 c 0,0 23.43,16.4 75.89,1.47 40.52,-11.53 55.18,-0.39 55.18,-0.39 v 270.55 c -23.21,-4.05 -62.74,11.87 -103.19,13.06" style="fill:#ffffff;fill-opacity:1;fill-rule:nonzero;stroke:none" id="path52"/>
      <path d="m 1073.69,1178.71 v 272.94 c 0,0 -6.18,12.42 -27.86,11.71 -40.46,-1.26 -79.994,-17.19 -103.135,-13.16 v -270.56 c 0,0 14.586,-11.17 55.11,0.4 52.465,15.01 75.885,-1.33 75.885,-1.33" style="fill:#ffffff;fill-opacity:1;fill-rule:nonzero;stroke:none" id="path54"/>
      <path d="m 2048.81,1451.65 v -272.94 c 0,0 23.34,16.34 75.8,1.33 40.55,-11.57 55.13,-0.4 55.13,-0.4 v 270.56 c -23.23,-4.03 -62.67,11.9 -103.07,13.16 -21.81,0.71 -27.86,-11.71 -27.86,-11.71" style="fill:#ffffff;fill-opacity:1;fill-rule:nonzero;stroke:none" id="path56"/>
      <path d="m 1974.77,2311.49 c -40.39,-1.19 -79.98,-17.11 -103.21,-13.06 v -270.55 c 0,0 14.67,-11.14 55.25,0.39 52.34,14.93 75.75,-1.47 75.75,-1.47 v 272.96 c 0,0 -6.04,12.4 -27.79,11.73" style="fill:#ffffff;fill-opacity:1;fill-rule:nonzero;stroke:none" id="path58"/>
      <path d="m 1876.68,1450.2 v -270.56 c 0,0 14.61,-11.17 55.11,0.4 52.49,15.01 75.9,-1.33 75.9,-1.33 v 272.94 c 0,0 -6.19,12.42 -27.92,11.71 -40.41,-1.26 -79.93,-17.19 -103.09,-13.16" style="fill:#ffffff;fill-opacity:1;fill-rule:nonzero;stroke:none" id="path60"/>
      <path d="m 2252.7,1963.41 h -185.91 v -23.35 h -77.09 v 23.35 h -185.91 v 314.19 h 39.57 v 57.17 c 40.34,-9.73 106.14,12.49 135.51,12.42 32.79,-0.08 49.36,-14.2 49.36,-14.2 0,0 16.9,14.2 49.34,14.2 29.4,0 95.13,-21.96 135.51,-12.42 v -57.17 h 39.62 z m 96.74,468.28 h -648.87 v -588.41 h 648.87 v 588.41" style="fill:#ffffff;fill-opacity:1;fill-rule:nonzero;stroke:none" id="path62"/>
      <path d="m 1318.69,1963.41 h -185.92 v -23.35 h -77.08 v 23.35 H 869.715 v 314.19 h 39.664 v 57.17 c 40.316,-9.73 106.131,12.49 135.501,12.42 32.77,-0.08 49.41,-14.2 49.41,-14.2 0,0 16.86,14.2 49.29,14.2 29.38,0 95.11,-21.96 135.44,-12.42 v -57.17 h 39.67 z m 98.82,468.28 H 768.16 v -588.41 h 649.35 v 588.41" style="fill:#ffffff;fill-opacity:1;fill-rule:nonzero;stroke:none" id="path64"/>
      <path d="m 1700.57,791.238 c 163.61,47.352 325.69,110.621 435.43,210.982 38.85,35.49 71.1,72.59 98.1,113.04 h -167.31 v -23.38 h -77.05 v 23.38 h -186.03 v 314.26 h 39.76 v 57.19 c 40.25,-9.75 106.04,12.39 135.44,12.39 32.77,-0.06 49.34,-14.26 49.34,-14.26 0,0 16.9,14.26 49.29,14.26 29.45,0 95.17,-22 135.51,-12.39 v -57.19 h 39.74 V 1145.3 c 59.74,103.36 88.13,229.88 97.78,407.67 l -1.13,26.51 H 1700.57 V 791.238" style="fill:#ffffff;fill-opacity:1;fill-rule:nonzero;stroke:none" id="path66"/>
      <path d="m 869.727,1148.51 v 281.01 h 39.738 v 57.19 c 40.258,-9.75 106.065,12.39 135.445,12.39 32.76,-0.06 49.41,-14.26 49.41,-14.26 0,0 16.84,14.26 49.28,14.26 29.39,0 95.12,-22 135.43,-12.39 v -57.19 h 39.67 v -314.26 h -185.98 v -23.38 h -77 v 23.38 H 890.066 c 26.493,-40.14 57.793,-77.31 94.649,-111.85 C 1088.13,906.5 1250.38,840.719 1417.43,791.789 V 1579.48 H 768.16 l 1.36,-24.94 c 6.46,-162.6 37,-295.26 100.207,-406.03" style="fill:#ffffff;fill-opacity:1;fill-rule:nonzero;stroke:none" id="path68"/>
      <path d="m 2324.69,2951.46 c -34.36,-6.96 -76.79,-16.78 -127.3,-36.35 -67.63,-26.33 -201.29,-33.62 -255.59,-32.7 -52.14,0.86 -69.72,-22.21 -87.98,-18.97 -1.08,28.13 -17.62,69.48 -17.62,69.48 15.09,8.1 64.55,24.85 107.49,23.18 57.48,-2.18 162.32,-6.56 216.5,1.92 26.48,4.06 123.32,4.52 138.06,4.59 11.16,0.06 28.6,-2.26 33.22,-2.99 22.92,-3.52 4.71,-5.77 -6.78,-8.16 z m -317.9,-206.73 c 54.71,-25.71 67.39,-84.48 85.77,-113.56 5.37,-19.37 -61.04,-25.37 -91.16,-8.7 -11.6,6.61 -44.7,49.72 -56.7,64.38 -12,14.49 -30.78,23.87 -40.13,10.64 -5.63,-7.95 1.13,-17.48 11.53,-23.21 12.75,-6.94 34.44,-38.86 38.28,-45.81 -2.18,-11.41 -49.06,-26.33 -83.42,8.49 -17.58,17.69 -49.18,79.38 -61.3,103.52 67.46,24.06 140.29,31.05 197.13,4.25 z m 201.17,18.62 c 118.47,-10.04 146.64,-88.04 134.85,-113.34 -10.36,-22.23 -82.91,-51.07 -192.89,-20.08 -36.29,16.16 -65.07,99.73 -75.67,110.41 -4.31,4.25 64.11,28.96 133.71,23.01 z m -592.53,-137.39 c -36.2,16.15 -65.01,99.72 -75.71,110.41 -4.3,4.24 64.24,28.95 133.82,23 118.54,-10.03 118.87,-83.67 147.98,-120.31 10.69,-13.43 -96.03,-44.11 -206.09,-13.1 z m -148.8,-1.42 c -11.08,7.49 -44.78,49.71 -56.77,64.29 -12.02,14.49 -34.17,27.74 -43.58,14.49 -5.63,-7.96 0.19,-17.1 10.21,-22.84 10.75,-6.16 39.26,-43.05 42.98,-50.02 -2.19,-11.4 -55.31,-30.5 -86.36,7.3 -16.05,19.64 -47.16,77.87 -65.86,102.81 67.52,23.97 147.84,32.93 204.74,6.11 54.6,-25.67 64.09,-84.83 85.86,-113.6 5.33,-19.33 -58,-31.06 -91.22,-8.54 z m -387.75,7.45 c -36.29,16.1 -65.01,99.66 -75.68,110.34 -4.255,4.24 64.21,29.09 133.78,23.08 118.45,-10.08 118.79,-83.66 147.97,-120.38 10.62,-13.36 -96.11,-43.97 -206.07,-13.04 z m -139.489,-1.49 c -41.457,29.62 -69.516,84.4 -98.375,74.86 -12.059,-3.92 -13.399,-25.45 3.191,-25.88 11.406,-0.26 31.77,-30.34 43.57,-43.64 -3.05,-15.98 -44.226,-32.94 -87.418,-6.96 -18.894,11.34 -50.476,51.83 -23.605,98.8 14.59,25.5 55.976,39.52 105.66,38.46 96.106,-2.16 123.116,-111.39 145.716,-131.85 0,-10.86 -51.798,-30.23 -88.739,-3.79 z m 230.689,247.87 c -9.59,3.32 -65.4,23.61 -98.74,21.29 -68.24,-4.97 -155,16.52 -198.016,33.5 -10.719,4.17 -104.676,12.39 -13.261,12.39 30.042,0 67.39,8.43 127.515,-0.19 35.112,-4.98 96.302,-10.94 189.222,-3.65 45.42,3.65 80.29,-11.31 97.83,-28.61 -4.7,-13.74 -10.36,-46.37 -11.67,-57.33 -23.97,-0.45 -68.35,13.84 -92.88,22.6 z m -50.91,218.35 c 7.5,9.75 15.68,27.16 19.7,40 4.21,-2.56 7.63,-4.71 9.48,-6.04 1.33,-0.72 27.4,-18.27 42.92,-25.57 68.5,-32.17 111.46,-40.22 158.19,-77.9 -17.07,-18.51 -34.38,-40.13 -45.11,-58.89 -97.99,27.23 -174.57,114.61 -185.18,128.4 z m -38.14,15.12 c -40.46,-32.43 -107.182,-35.54 -148.311,-19.82 -5.207,2.02 -11.106,1.23 -15.614,-2.06 -27.464,-19.94 -57.472,-21.7 -82.382,-4.81 -24.77,16.74 -37.285,47.29 -30.473,74.24 9.68,38.28 55.441,64.22 125.484,71.22 7.266,0.72 13.204,6.13 14.598,13.26 12.559,64.11 54.254,73.66 94.548,82.85 l 17.38,4.17 c 8.19,1.99 13.22,9.72 12.13,18.07 -1.52,12.08 8.98,53.5 43.01,79.79 39.61,30.61 98.96,31.35 171.66,2.16 4.22,-1.69 8.92,-1.59 13.05,0.3 4.1,1.85 7.25,5.35 8.75,9.63 18.23,52.76 54.38,89.8 101.84,104.3 48.72,14.92 102.38,4.18 147.22,-29.49 5.56,-4.15 13.1,-4.42 18.91,-0.67 44.57,28.62 97.37,37.78 144.9,25.18 53.07,-14.06 98.07,-53.93 130.09,-115.3 3.77,-7.24 12.31,-10.63 20.04,-7.97 49.81,17.14 90.29,17.54 117.11,1.15 25.43,-15.55 34.22,-43.03 37.13,-63.34 0.7,-4.87 3.49,-9.15 7.67,-11.74 4.17,-2.58 9.28,-3.15 13.92,-1.63 52.83,17.66 105.9,15.07 141.98,-6.92 23.67,-14.43 38.35,-35.91 42.47,-62.18 1.17,-7.66 7.55,-13.47 15.31,-13.94 46.13,-2.81 78.85,-23.27 89.75,-56.18 9.78,-29.55 -0.21,-63.3 -24.8,-84.03 -34.88,-29.38 -90.11,-27.45 -151.47,5.33 -4.81,2.56 -10.52,2.58 -15.33,0.1 -47.82,-24.63 -93.08,-26.28 -134.66,-4.9 -48.64,25.08 -76.73,74.22 -80.43,99.55 -0.61,4.42 -2.98,8.36 -6.54,10.99 -3.59,2.61 -8.06,3.68 -12.45,2.98 -34.05,-5.5 -147.11,-15.1 -170.52,93.22 -1.15,5.36 -4.88,9.79 -9.94,11.84 -5.04,2.06 -10.83,-1.85 -15.38,-4.88 -73.33,-48.77 -145.64,-45.3 -215.04,10.39 -6.59,5.34 -16.18,6.09 -22.12,0.07 -79,-80.2 -143.87,-74.26 -175.54,-61.43 -7.39,2.99 -15.88,0.61 -20.16,-6.17 -30.64,-48.5 -96.35,-58.56 -142.17,-43.76 -5.44,1.75 -11.41,2.22 -15.75,-1.47 -4.39,-3.67 -6.51,-9.35 -5.67,-15.03 6.62,-44.86 -4.88,-79.55 -34.2,-103.07 z m 553.45,41.42 c -7.43,-18.8 -10.34,-28.71 -13.12,-39.29 5.79,40.42 -5.19,99.55 -16.95,150.64 35.28,-0.75 70.99,8.51 106.42,28.6 2.75,-7.98 6.41,-14.95 10.02,-21.92 -20,-18.23 -67.8,-70.7 -86.37,-118.03 z m 165.92,39.54 c 1.27,2.18 2.72,5.01 4.24,8.06 29.05,-9.65 60.93,-12.2 92.19,-8.77 3.17,-10.23 8.07,-21.14 14.38,-32.13 -0.15,-0.03 -0.45,-0.23 -0.52,-0.26 -15.47,-7.36 -62.4,-39.47 -130.97,-77.67 -17.74,-9.81 -28.66,-19.27 -34.94,-25.73 7.54,10.15 16.76,23.56 22.57,38.4 12.07,30.9 8.86,55.71 33.05,98.1 z m -41.3,-10.47 c -15.24,-32.78 -7.31,-75.17 -46.32,-113.63 -5.37,4.44 -44.68,23.19 -59.57,29.2 6.19,52.08 54.65,117.15 86.36,144.01 9.92,-11.27 23.56,-21.05 36.22,-27.93 -3.7,-6.37 -10.08,-17.51 -16.69,-31.65 z m -239.09,5.43 c 3.13,50.14 12.58,84.2 13.95,90.6 10.64,-5.11 23.59,-9.52 36.11,-12.7 9.87,-20.89 26.61,-104.34 19.27,-154.61 -22.81,2.13 -49.45,1.58 -65.36,0 -4.96,8.96 -5.66,49.84 -3.97,76.71 z m 38.84,-103.1 c 151.31,0 269.77,-118.53 269.77,-269.74 0,-10.14 -0.7,-25.37 -2.64,-39.9 -16.32,-4.66 -32.49,-10.27 -48.01,-18.03 -78.1,45.5 -184.74,42.85 -258.75,0.64 -45.7,36.25 -148.61,39.11 -226.21,21.11 -2.35,14.61 -3.94,29.05 -3.94,36.18 0,148.98 120.79,269.74 269.78,269.74 z m -142.96,71.39 c 19.21,-25.14 36.49,-54.69 40.22,-60.92 -16.14,-5.8 -44.57,-20.16 -61.01,-31.3 -30.79,31.83 -54.65,127.87 -70.05,153.35 -5.89,9.74 -10.05,16.5 -13.25,21.75 10.59,-3.7 27.57,-3.19 37.56,-3.32 2.99,-4.25 29.54,-30.47 66.53,-79.56 z m 69.19,-45.17 1.16,-2.49 c 0,0 -24.09,36.16 -27,40.77 -8.24,12.6 -18.98,25.34 -30.98,40.12 -18.85,22.82 -35.42,41.36 -48.21,55.19 31.56,7.72 67.6,25.73 106.42,62.33 4.14,-3.01 8.32,-5.29 12.49,-7.93 -2.12,-12.45 -4.08,-23.7 -5.56,-31.85 -8.96,-48.88 -9.59,-86.43 -10.22,-102.54 -0.68,-15.28 0.82,-39.41 1.9,-53.6 z m -337.23,81.02 c 43.67,-6.88 94.52,3.32 131.5,36.58 45.4,-72.5 46.59,-138.16 90.4,-183.39 -55.32,53.52 -103.57,52.49 -182.69,95.18 -13.66,7.37 -34.07,20.62 -39.81,23.54 -0.09,0.07 -0.26,0.14 -0.36,0.19 0.9,6.68 1.46,13.61 1.46,21.06 0,2.13 -0.43,4.62 -0.5,6.84 z m 748.77,-132.75 c -51.97,-61.16 -78.17,-82.49 -87.29,-82.08 -9.96,19.86 -31.99,43.58 -46.9,56.81 18.7,20.76 99.9,58.66 137.36,86.88 5.53,4.15 21.96,14.23 29,18.09 9.67,-11.52 21.11,-22.53 34.36,-31.98 -32.14,-17.87 -49.86,-28.19 -66.53,-47.72 z m 524.97,-82.68 c -9.75,7.16 -113.21,19.9 -129.34,19.9 -15.73,0 -105.08,-0.8 -139.59,-6.03 -53.63,-7.97 -145.14,-7.97 -214.64,0 -25.15,2.94 -52.97,-3.19 -75.76,-10.55 4.48,3.76 9.28,8.12 15.05,14.06 20.51,21.1 43.48,61.16 84.24,81.12 10.32,5.11 19.93,10.32 29.28,15.55 34.22,-17.11 88.16,-28.72 155.2,2.82 100.02,-49.93 159.68,-16.15 180.77,1.62 25.81,21.75 40.2,53.86 40.2,86.2 0,11.27 -1.74,22.59 -5.37,33.49 -14.39,43.48 -54.05,70.58 -108.53,76.95 -3.11,11.6 -8.06,22.35 -13.99,32.53 6.33,8.06 12.33,15.66 16.24,20.26 4.74,5.97 21.17,33.24 -22.83,10.49 -2.27,-1.17 -6.47,-3.49 -11.86,-6.54 -6.16,6.1 -12.93,11.71 -20.72,16.44 -41.02,25.02 -96.48,28.06 -153.6,12.81 -8.02,30.44 -23.07,56.14 -47.05,70.8 -25.15,15.4 -56.82,19.83 -94.14,14.13 2.33,5.47 4.46,10.31 6.24,14.12 16.59,34.76 7.64,43.47 -9.79,28.06 -19.67,-17.44 -32.07,-29.88 -41.54,-39.9 -35.3,56.66 -81.81,94.93 -136.75,109.49 -47.68,12.63 -99.17,5.93 -145.6,-16.52 -2.77,23.35 -5.81,42.54 -9.19,53.59 -8.66,28.19 -18.98,6.04 -20.6,-2.65 -1.92,-11.77 -4.59,-27.96 -7.68,-46.7 -46.39,24.78 -97.92,31.65 -146.14,16.88 -52.96,-16.2 -93.34,-55.67 -116.6,-110.5 -19.24,6.84 -36.65,10.99 -53.04,13.87 -9.71,12.72 -24.08,28.89 -44.16,46.46 -13.54,12 -24.71,5.76 -16.59,-17.92 3.18,-9.15 5.94,-17.26 8.49,-24.93 -37.78,-2.09 -65.37,-14.49 -83.93,-28.82 -36.69,-28.35 -51.65,-68.95 -54.63,-94.71 -2.16,-0.54 -5.04,-1.24 -5.04,-1.24 -30.78,-7.06 -72.334,-18.64 -98.366,-59.69 -4.601,2.85 -7.961,4.94 -9.351,5.85 -77.606,51.53 -41.828,-14.76 -11.813,-43.99 -103.203,-14.59 -132.316,-64.17 -139.781,-93.63 -1.894,-7.47 -2.824,-15.15 -2.824,-22.8 0,-33.46 17.457,-67.02 46.801,-86.93 34.492,-23.34 76.336,-21.92 113.554,1.89 48.586,-15.66 117.23,-13.13 166.47,22.68 28.41,-30.6 51.34,-52.33 63.78,-64.69 30.94,-30.79 76.31,-54.23 99.53,-63.02 -22.95,8.89 -61.15,18.44 -99.36,13.14 -82.5,-11.48 -137.26,3.45 -172.58,6.95 -58.207,5.78 -118.035,-4.25 -147.82,-4.25 -31.574,0 -76.145,-14.84 -97.867,-18.04 -23.485,-3.51 -21.953,-19.03 10.726,-27.7 32.352,-8.76 92.981,-14.14 109.426,-21.18 52.668,-22.87 140.777,-41.98 202.895,-36.99 44.08,3.37 88.46,-18.13 99.86,-21.5 21.85,-6.71 76.04,-21.5 98.3,-21.09 0,1.33 0,-31.31 2.3,-46.73 -8.43,-2.79 -16.52,-5.74 -23.76,-9.06 -24.67,15 -132.92,58.9 -264.775,4.25 -27.855,9.64 -86.832,42.18 -167.621,15.58 -99.75,-32.92 -83.566,-124.26 -50.668,-166.11 44.496,-56.61 126.821,-45.14 150.77,-16.66 53.586,-35.59 108.244,-23.54 147.904,1.07 26.07,-15.32 154.35,-40.76 251.85,-1.07 13.33,-9.92 66.86,-37.86 135.57,-3.25 39.67,-23.54 105.27,-25.36 138.94,4.32 12.21,-10.38 48.82,-25.25 126.82,-24.35 93.66,1.12 115.42,15.09 128.54,26.51 20.19,-9.36 72.76,-36.85 137.83,-9.09 35.09,-22.09 105.34,-20.8 143.01,3.9 68.85,-31.29 195.12,-17.13 226.72,4.65 56.51,39.2 29.18,119.1 -33.05,157.01 -122.36,61.67 -236.26,13.82 -266.5,-1.7 -36.03,24.33 -111.43,39.93 -189.72,25.41 1.21,9.32 -0.17,19.96 -0.17,31.84 0,1.26 -0.18,2.44 -0.21,3.71 15.52,4.71 37.58,21.42 82.49,24.23 61.11,4.12 205.29,2.2 277.37,39.14 41.14,21.03 184.26,49.08 203.34,60.23 19.71,11.27 14.51,19.63 4.43,26.53" style="fill:#231f20;fill-opacity:1;fill-rule:nonzero;stroke:none" id="path70"/>
      <path d="m 936.898,3181.66 c -28.886,0 -52.066,-0.6 -72.39,-22.7 -21.738,-23.53 -16.457,-36.46 -20.5,-40.72 -5.942,-5.83 -20.832,4.45 -20.563,16.12 1.262,55.39 68.172,77 107.852,72.57 15.121,-1.79 19.031,-25.27 5.601,-25.27" style="fill:#231f20;fill-opacity:1;fill-rule:nonzero;stroke:none" id="path72"/>
      <path d="m 1054.44,3274.64 c -42.26,-4.64 -54.627,-25.27 -62.159,-48.94 -3.086,-8.9 -26.797,-2.52 -23.043,15 11.207,52.05 67.682,64.79 88.182,60.34 6.9,-1.33 4.78,-25.66 -2.98,-26.4" style="fill:#231f20;fill-opacity:1;fill-rule:nonzero;stroke:none" id="path74"/>
      <path d="m 1238.49,3387.8 c -74.95,29.39 -112.56,-27.45 -124.69,-72.29 -1.66,-6.1 -26.77,-3.79 -23.22,15.26 8.69,45.96 53.62,112.88 156.27,86.82 12.6,-3.18 5.17,-35.16 -8.36,-29.79" style="fill:#231f20;fill-opacity:1;fill-rule:nonzero;stroke:none" id="path76"/>
      <path d="m 1519.02,3461.69 c -69.05,47.49 -123.36,9.36 -152.16,-24.99 -13.81,-16.32 -28.2,10.66 -22.28,20.16 24.82,39.34 110.01,99.88 185.52,33.23 8.49,-7.38 -1.62,-34.76 -11.08,-28.4" style="fill:#231f20;fill-opacity:1;fill-rule:nonzero;stroke:none" id="path78"/>
      <path d="m 1802.6,3397.45 c -5.74,-4.1 -9.16,5.24 -12.96,11.35 -61.55,97.38 -172.92,71.69 -202.86,26.53 -6.07,-9.15 -22.27,15.65 -14.39,28.58 27.02,43.98 168.4,84.91 240.93,-39.46 7.68,-13.54 -2.58,-21.42 -10.72,-27" style="fill:#231f20;fill-opacity:1;fill-rule:nonzero;stroke:none" id="path80"/>
      <path d="m 1975.88,3336.23 c -17.42,45.38 -50.17,43.58 -89.29,31.11 -18.03,-5.91 -13.67,23.95 -7.71,26.01 37.5,13.26 101.38,19.16 118.42,-43.52 4.87,-17.52 -16.64,-25.87 -21.42,-13.6" style="fill:#231f20;fill-opacity:1;fill-rule:nonzero;stroke:none" id="path82"/>
      <path d="m 2178.85,3238.66 c -31.09,57.12 -81.29,56.98 -123.23,40.98 -9.4,-3.7 -17.89,20.18 -3,28.67 40.41,23.08 123.09,18.97 148.8,-54.78 4.41,-12.54 -12.24,-33.84 -22.57,-14.87" style="fill:#231f20;fill-opacity:1;fill-rule:nonzero;stroke:none" id="path84"/>
      <path d="m 2307.88,3148.73 c -2.41,-9.56 -25.87,-10.16 -25.05,-0.4 3.58,46.76 -19.53,50.53 -50.31,50.21 -11.65,-0.27 -10.75,24.87 -1.94,26.79 41.56,9.62 91.46,-20.75 77.3,-76.6" style="fill:#231f20;fill-opacity:1;fill-rule:nonzero;stroke:none" id="path86"/>
      <path d="m 1499.79,2906.92 c -0.85,-17.34 -15.58,-30.64 -32.96,-29.78 -17.32,0.84 -30.58,15.72 -29.72,32.93 l 0.28,3.46 c -2.67,4.11 -16.79,8.68 -37.76,-4.05 -10.53,-6.47 -22.34,-2.03 -4.04,13.83 19.44,16.88 37.87,26.65 54.13,28.69 l 0.52,0.13 c 27.4,1.89 63.02,-3.72 79.66,-10.49 6.91,-2.82 -0.26,-36.74 -1.85,-36.34 -5.65,1.26 -17.98,6.47 -28.33,4.11 l 0.07,-2.49" style="fill:#231f20;fill-opacity:1;fill-rule:nonzero;stroke:none" id="path88"/>
      <path d="m 1589.78,2812.87 c -5.51,-16.01 -62.19,-21.13 -72.62,-0.3 -4.11,8.27 -9.81,29.59 -2.12,25.18 12.61,-7.34 58.21,-2.15 66.84,0 7.62,1.95 2.65,12.57 7.36,11.27 5.63,-1.57 5.63,-20.99 0.54,-36.15" style="fill:#231f20;fill-opacity:1;fill-rule:nonzero;stroke:none" id="path90"/>
      <path d="m 1723.16,2901.58 c -14.24,11.74 -32.9,16.89 -40.05,11.74 l 0.26,-2.41 c 1.47,-17.29 -11.28,-32.48 -28.54,-34.04 -17.3,-1.52 -32.56,11.35 -34.01,28.57 v 1.35 c -11.28,3.55 -29.26,-2.66 -31.72,-1.69 -1.45,0.67 -9.07,32.63 0.87,36.65 27.07,11.04 114.3,16.44 139.64,-32.54 2.98,-5.94 1.12,-13.83 -6.45,-7.63" style="fill:#231f20;fill-opacity:1;fill-rule:nonzero;stroke:none" id="path92"/>
      <path d="m 728.434,2471.34 v -870.77 c 0,-287.78 71.914,-487.1 225.668,-627.121 152.718,-139 381.408,-209.578 605.008,-262.398 229.67,54.258 450.7,121.949 604.92,262.398 153.82,140.021 225.28,339.341 225.28,627.121 v 870.77 z M 2007.69,1451.65 v -272.94 c 0,0 -23.41,16.34 -75.9,1.33 -40.5,-11.57 -55.11,-0.4 -55.11,-0.4 v 270.56 c 23.16,-4.03 62.68,11.9 103.09,13.16 21.73,0.71 27.92,-11.71 27.92,-11.71 z m 172.05,-1.45 v -270.56 c 0,0 -14.58,-11.17 -55.13,0.4 -52.46,15.01 -75.8,-1.33 -75.8,-1.33 v 272.94 c 0,0 6.05,12.42 27.86,11.71 40.4,-1.26 79.84,-17.19 103.07,-13.16 z m 73.05,-304.9 v 284.22 h -39.74 v 57.19 c -40.34,-9.61 -106.06,12.39 -135.51,12.39 -32.39,0 -49.29,-14.26 -49.29,-14.26 0,0 -16.57,14.2 -49.34,14.26 -29.4,0 -95.19,-22.14 -135.44,-12.39 v -57.19 h -39.76 v -314.26 h 186.03 v -23.38 h 77.05 v 23.38 h 167.31 c -27,-40.45 -59.25,-77.55 -98.1,-113.04 C 2026.26,901.859 1864.18,838.59 1700.57,791.238 v 788.242 h 648.87 l 1.13,-26.51 c -9.65,-177.79 -38.04,-304.31 -97.78,-407.67 z M 1666.65,781 1559.11,753.641 1451.34,781.43 v 834.2 H 768.16 v 191.51 h 683.18 v 624.55 h 215.31 v -624.55 h 682.79 v -191.51 h -682.79 z m -551.9,397.71 v 272.94 c 0,0 6.16,12.42 27.86,11.71 40.46,-1.26 79.99,-17.19 103.21,-13.16 v -270.56 c 0,0 -14.67,-11.17 -55.19,0.4 -52.47,15.01 -75.88,-1.33 -75.88,-1.33 z m -172.055,0.93 v 270.56 c 23.141,-4.03 62.675,11.9 103.135,13.16 21.68,0.71 27.86,-11.71 27.86,-11.71 v -272.94 c 0,0 -23.42,16.34 -75.885,1.33 -40.524,-11.57 -55.11,-0.4 -55.11,-0.4 z M 1417.43,791.789 c -167.05,48.93 -329.3,114.711 -432.715,211.621 -36.856,34.54 -68.156,71.71 -94.649,111.85 h 165.654 v -23.38 h 77 v 23.38 h 185.98 v 314.26 h -39.67 v 57.19 c -40.31,-9.61 -106.04,12.39 -135.43,12.39 -32.44,0 -49.28,-14.26 -49.28,-14.26 0,0 -16.65,14.2 -49.41,14.26 -29.38,0 -95.187,-22.14 -135.445,-12.39 v -57.19 H 869.727 V 1148.51 C 806.52,1259.28 775.98,1391.94 769.52,1554.54 l -1.36,24.94 h 649.27 z M 768.16,2431.69 h 649.35 V 1843.28 H 768.16 Z m 932.41,0 h 648.87 v -588.41 h -648.87 v 588.41" style="fill:#231f20;fill-opacity:1;fill-rule:nonzero;stroke:none" id="path94"/>
      <path d="m 1245.79,2027.88 c 0,0 -14.66,-11.14 -55.18,0.39 -52.46,14.93 -75.89,-1.47 -75.89,-1.47 v 272.96 c 0,0 6.18,12.4 27.88,11.73 40.45,-1.19 79.98,-17.11 103.19,-13.06 z m -172.18,-1.08 c 0,0 -23.35,16.4 -75.817,1.47 -40.531,-11.53 -55.184,-0.39 -55.184,-0.39 v 270.55 c 23.211,-4.05 62.741,11.87 103.141,13.06 21.75,0.67 27.86,-11.73 27.86,-11.73 z m 205.41,250.8 v 57.17 c -40.33,-9.54 -106.06,12.42 -135.44,12.42 -32.43,0 -49.29,-14.2 -49.29,-14.2 0,0 -16.64,14.12 -49.41,14.2 -29.37,0.07 -95.185,-22.15 -135.501,-12.42 v -57.17 h -39.664 v -314.19 h 185.975 v -23.35 h 77.08 v 23.35 h 185.92 v 314.19 h -39.67" style="fill:#231f20;fill-opacity:1;fill-rule:nonzero;stroke:none" id="path96"/>
      <path d="m 2174.76,2027.88 c 0,0 -14.68,-11.14 -55.2,0.39 -52.53,14.93 -75.88,-1.47 -75.88,-1.47 v 272.96 c 0,0 6.23,12.4 27.94,11.73 40.39,-1.19 79.93,-17.11 103.14,-13.06 z m -172.2,-1.08 c 0,0 -23.41,16.4 -75.75,1.47 -40.58,-11.53 -55.25,-0.39 -55.25,-0.39 v 270.55 c 23.23,-4.05 62.82,11.87 103.21,13.06 21.75,0.67 27.79,-11.73 27.79,-11.73 z m 210.52,250.8 v 57.17 c -40.38,-9.54 -106.11,12.42 -135.51,12.42 -32.44,0 -49.34,-14.2 -49.34,-14.2 0,0 -16.57,14.12 -49.36,14.2 -29.37,0.07 -95.17,-22.15 -135.51,-12.42 v -57.17 h -39.57 v -314.19 h 185.91 v -23.35 h 77.09 v 23.35 h 185.91 v 314.19 h -39.62" style="fill:#231f20;fill-opacity:1;fill-rule:nonzero;stroke:none" id="path98"/>
      <path d="M 1451.34,781.43 1559.11,753.641 1666.65,781 v 834.63 h 682.79 v 191.51 h -682.79 v 624.55 H 1451.34 V 1807.14 H 768.16 v -191.51 h 683.18 v -834.2" style="fill:#ed1c24;fill-opacity:1;fill-rule:nonzero;stroke:none" id="path100"/>
      <path d="m 1136.98,2765.41 c -69.57,6.01 -138.035,-18.84 -133.78,-23.08 10.67,-10.68 39.39,-94.24 75.68,-110.34 109.96,-30.93 216.69,-0.32 206.07,13.04 -29.18,36.72 -29.52,110.3 -147.97,120.38" style="fill:#ed1c24;fill-opacity:1;fill-rule:nonzero;stroke:none" id="path102"/>
      <path d="m 1673.54,2759.37 c -69.58,5.95 -138.12,-18.76 -133.82,-23 10.7,-10.69 39.51,-94.26 75.71,-110.41 110.06,-31.01 216.78,-0.33 206.09,13.1 -29.11,36.64 -29.44,110.28 -147.98,120.31" style="fill:#ed1c24;fill-opacity:1;fill-rule:nonzero;stroke:none" id="path104"/>
      <path d="m 2149.92,2629.93 c 109.98,-30.99 182.53,-2.15 192.89,20.08 11.79,25.3 -16.38,103.3 -134.85,113.34 -69.6,5.95 -138.02,-18.76 -133.71,-23.01 10.6,-10.68 39.38,-94.25 75.67,-110.41" style="fill:#ed1c24;fill-opacity:1;fill-rule:nonzero;stroke:none" id="path106"/>
    </g>
  </g>
</svg>